<?xml version="1.0" encoding="UTF-8"?>
<svg width="105px" height="25px" viewBox="0 0 105 25" version="1.1" xmlns="http://www.w3.org/2000/svg" xmlns:xlink="http://www.w3.org/1999/xlink">
    <defs>
        <polygon id="path-1" points="0 0.10015625 18.038499 0.10015625 18.038499 18.4009689 0 18.4009689"></polygon>
        <polygon id="path-3" points="0.00923611111 0.0971380984 18.0555556 0.0971380984 18.0555556 18.4027778 0.00923611111 18.4027778"></polygon>
        <polygon id="path-5" points="0.0899891529 0.0378472222 4.19607639 0.0378472222 4.19607639 4.14159722 0.0899891529 4.14159722"></polygon>
    </defs>
    <g id="Symbols" stroke="none" stroke-width="1" fill="none" fill-rule="evenodd">
        <g id="Header" transform="translate(-134.000000, 0.000000)">
            <g id="Group-24">
                <g transform="translate(134.000000, 0.000000)">
                    <g id="Group-3" transform="translate(0.000000, 6.559375)">
                        <mask id="mask-2" fill="white">
                            <use xlink:href="#path-1"></use>
                        </mask>
                        <g id="Clip-2"></g>
                        <path d="M0.000173611111,8.81578125 C0.000173611111,9.91647569 -0.0175347222,10.4782813 0.302430556,11.5678646 C0.614756944,12.6308854 1.10381944,13.6473785 1.74496528,14.5202951 C2.33385417,15.3220313 3.16892361,16.173941 3.97013889,16.7275868 C4.88888889,17.362309 5.18385417,17.4843576 6.14565972,17.8669965 C7.61006944,18.449809 10.1555556,18.7204688 11.5618056,17.8077951 C12.4440972,17.2355729 12.9618056,15.9973785 12.9618056,14.7380035 L12.9618056,13.8814063 C12.9618056,13.5659549 12.9244792,13.4076215 12.9244792,13.0992882 C12.7729167,13.1345313 11.6451389,13.8765451 11.1362847,14.1046701 C9.04704861,15.0414757 6.90069444,14.6925174 5.26111111,13.0527604 C4.33802083,12.1296701 3.6875,10.773941 3.6875,9.41178819 C3.6875,8.36560764 3.76076389,7.76821181 4.18402778,6.85397569 C4.46354167,6.24998264 4.82465278,5.79755208 5.2796875,5.34251736 C5.62534722,4.99685764 5.58888889,5.03661458 5.98576389,4.74494792 C6.24513889,4.55432292 6.5234375,4.41508681 6.815625,4.27116319 C8.36788194,3.50553819 10.0128472,3.71387153 11.5092014,4.45796875 C11.7067708,4.55623264 11.8197917,4.62689236 12.0010417,4.74824653 C12.1413194,4.84182292 12.3260417,4.97237847 12.4493056,5.08192708 C12.5880208,5.20519097 12.70625,5.33939236 12.8407986,5.47289931 C13.4956597,6.12185764 13.9460069,7.19633681 14.10625,8.11803819 C14.4223958,9.93696181 14.0329861,16.4553646 14.3340278,17.3511979 C14.6296875,18.2293229 15.6173611,18.0742882 16.6557292,18.1607465 C16.9996528,18.1892188 17.5331597,18.0638715 17.7782986,17.7298438 C17.9848958,17.4491146 18.0796875,16.8992882 18.0217014,16.3826215 C17.9510417,15.7538021 17.9493056,10.8579688 17.953125,10.193559 C17.9548611,9.90397569 17.9142361,9.75553819 17.9152778,9.44928819 C17.9217014,7.72706597 17.6644097,6.53105903 16.8848958,4.96699653 C16.2328125,3.65848958 15.0984375,2.41508681 13.9225694,1.63470486 C12.6114583,0.764565972 10.8640625,0.10015625 9.1625,0.10015625 C7.51180556,0.10015625 6.47552083,0.326892361 5.14010417,0.994079861 C4.65763889,1.23522569 4.22118056,1.50432292 3.8046875,1.81873264 C3.69791667,1.89928819 3.61458333,1.95970486 3.50989583,2.04564236 C3.39722222,2.13782986 3.31302083,2.21907986 3.20868056,2.30328125 C1.90399306,3.35380208 0.741145833,5.26213542 0.297743056,6.95310764 C0.168576389,7.44581597 0.000173611111,8.21230903 0.000173611111,8.81578125" id="Fill-1" fill="#FF3E3C" mask="url(#mask-2)"></path>
                    </g>
                    <path d="M46.3581424,15.4868924 L46.3581424,16.1573785 C46.3581424,18.0653646 47.3781076,20.3266493 48.5831424,21.6796007 L49.1235938,22.2568576 C49.8765451,23.009809 50.7321007,23.6518229 51.720816,24.0915799 C51.8555382,24.1514757 51.9454688,24.2039063 52.1041493,24.2669271 C53.443559,24.797309 54.3428646,24.9476563 55.8564063,24.9476563 C56.927934,24.9476563 57.9315799,24.5759549 58.5600521,23.7778646 C59.005191,23.2132813 59.1852257,22.5540799 59.2947743,21.7559896 C59.4074479,20.9344618 59.3284549,20.8290799 59.3220313,20.178559 C59.3199479,19.9648438 59.2831424,19.8978299 59.2831424,19.6585938 C59.1400868,19.6921007 58.786441,19.933941 58.642691,20.0238715 C57.9794965,20.4388021 57.4008507,20.7830729 56.5867882,20.9849826 C56.0812326,21.1103299 55.7939063,21.1580729 55.2970313,21.1867188 C55.0949479,21.1986979 54.9952951,21.1565104 54.8128299,21.1488715 C53.808316,21.1068576 52.7079688,20.5747396 51.9902604,19.9483507 C51.6067535,19.6138021 51.3163021,19.340191 51.0204688,18.906684 C50.0952951,17.5500868 49.7199479,15.4980035 50.3541493,13.8960938 C50.5548438,13.3889757 50.6751563,13.0877604 51.0293229,12.597309 C52.4699479,10.6032118 54.927934,9.80407986 57.3360938,10.7669271 C57.823941,10.962066 58.434184,11.2752604 58.8090104,11.6403646 C58.8880035,11.7174479 58.9097049,11.7486979 59.0017188,11.8202257 C59.1454688,11.9325521 59.0919965,11.9082465 59.1999826,12.0318576 C60.7348785,13.7893229 60.5869618,15.3881076 60.5869618,17.7217882 C60.5869618,18.4198785 60.5461632,21.8960938 60.5890451,22.4131076 C60.6308854,22.9207465 60.5859201,23.5346354 60.7025868,23.9011285 C60.9850521,24.7912326 61.9671701,24.6334201 63.0147396,24.7202257 C63.1807118,24.733941 63.5690799,24.6608507 63.6843576,24.618316 C64.6595313,24.2605035 64.343559,23.0382813 64.3484201,22.1919271 C64.3511979,21.6929688 64.3786285,20.1603299 64.3331424,19.8605035 C64.174809,18.8127604 64.5194271,15.9601563 64.0857465,13.8507813 C63.996684,13.4190104 63.8765451,13.0360243 63.739566,12.6325521 C63.6381771,12.3344618 63.4024132,11.7801215 63.2472049,11.5228299 C62.8590104,10.8794271 62.5565799,10.2703993 61.9751563,9.66640625 L60.987309,8.71762153 C60.9074479,8.64678819 60.8472049,8.60199653 60.7621354,8.53324653 C60.1251563,8.01779514 58.9696007,7.40581597 58.1985938,7.14835069 C55.6390451,6.29192708 53.0972049,6.53758681 50.806059,7.94175347 L49.870816,8.60807292 C49.1940799,9.15564236 48.5069271,9.87803819 48.0267188,10.6002604 C47.4482465,11.4703993 47.2643924,11.8481771 46.9057118,12.756684 C46.6284549,13.4601563 46.3581424,14.6919271 46.3581424,15.4868924" id="Fill-4" fill="#FF3E3C"></path>
                    <g id="Group-8" transform="translate(86.111111, 6.559375)">
                        <mask id="mask-4" fill="white">
                            <use xlink:href="#path-3"></use>
                        </mask>
                        <g id="Clip-7"></g>
                        <path d="M0.00923611111,9.22539931 C0.00923611111,9.54935764 0.0495138889,9.96446181 0.0835416667,10.2684549 C0.220520833,11.498316 0.642916667,12.5971007 1.21357639,13.6453646 L1.87642361,14.658559 C1.95993056,14.7696701 2.03336806,14.8597743 2.12364583,14.970191 L2.66270833,15.585816 C3.51357639,16.4271354 4.18805556,16.9392882 5.27347222,17.4821701 C5.81184028,17.7510938 6.27694444,17.9115104 6.89534722,18.0950174 C8.07399306,18.4446701 9.92677083,18.5655035 11.1040278,18.085816 C12.4866667,17.5224479 13.0083681,16.0453646 13.0083681,14.626441 C13.0083681,14.3300868 13.0193056,13.4880729 12.9689583,13.2087326 C12.9359722,13.0267882 12.8312847,13.1497049 12.516875,13.3528299 L11.4890972,13.9637674 C11.3875347,14.0229688 11.3196528,14.0392882 11.2083681,14.0924132 C9.29395833,15.007691 7.08336806,14.7207118 5.54986111,13.2950174 C5.10576389,12.8823438 4.99239583,12.7882465 4.6278125,12.2425868 C2.83215278,9.55508681 3.71878472,5.78512153 6.81236111,4.29623264 C9.06340278,3.21255208 11.8205208,4.00508681 13.2057639,5.86220486 C13.6476042,6.45456597 13.9795486,7.21689236 14.1415278,8.09223958 C14.4726042,9.87644097 14.0896181,16.5002257 14.3654861,17.329566 C14.5040278,17.746059 14.7686111,17.9493576 15.2045486,18.054566 C15.65125,18.1623785 15.9517708,18.1073438 16.3238194,18.127309 C16.4878819,18.1363368 16.5048958,18.1641146 16.6953472,18.1672396 C17.8621875,18.1868576 18.1311111,17.5240104 18.0389236,16.4123785 C18.00125,15.958559 18.0357986,15.3214063 18.0378819,14.849184 C18.0390972,14.5755729 17.9991667,14.4104688 17.9996875,14.1049132 C18.0024653,12.9363368 18.0486458,11.2096007 17.9644444,10.1918924 C17.9229514,9.69015625 18.0196528,9.13494792 17.9467361,8.64519097 C17.910625,8.40039931 17.9062847,8.18234375 17.8720833,7.93772569 C17.8352778,7.67401042 17.7911806,7.45907986 17.7484722,7.24189236 C17.5107986,6.03876736 16.7741667,4.43894097 15.9769444,3.50092014 C15.2713889,2.67088542 14.8121875,2.20960069 13.895,1.59727431 C11.9599306,0.305086806 9.26513889,-0.291614583 6.83232639,0.368107639 C5.76201389,0.658038194 4.70888889,1.17210069 3.82954861,1.83460069 C3.37434028,2.17782986 3.04100694,2.49015625 2.64430556,2.88442708 C2.45263889,3.07522569 2.29604167,3.27036458 2.12364583,3.48112847 C1.03545139,4.81342014 0.341354167,6.43598958 0.0995138889,8.16098958 L0.00923611111,9.22539931 Z" id="Fill-6" fill="#FF3E3C" mask="url(#mask-4)"></path>
                    </g>
                    <path d="M71.0255903,7.85147569 L71.0255903,7.34505208 C70.9268056,6.97821181 70.6332292,6.83897569 70.2144792,6.84592014 L68.1766319,6.84592014 C67.4603125,6.92074653 69.3775,8.46901042 69.6005903,8.68064236 C69.7182986,8.79921875 69.8002431,8.84019097 69.918125,8.95894097 L70.2523264,9.25772569 C70.3134375,9.31223958 70.3393056,9.35078125 70.4035417,9.40494792 L72.2080556,10.915191 C72.3132639,11.0091146 72.4184722,11.0990451 72.5313194,11.1877604 C72.6745486,11.3002604 72.7408681,11.3657118 72.8880903,11.4643229 C73.5641319,11.106684 74.1250694,10.8311632 74.9736806,10.8311632 C75.2514583,10.8311632 75.6839236,10.8959201 75.9281944,10.9572049 C76.2314931,11.0335938 76.4964236,11.1268229 76.7500694,11.2525174 C77.7512847,11.7502604 78.4261111,12.5766493 78.7780208,13.6195313 C78.9938194,14.2575521 78.9592708,14.8264757 78.9592708,15.6730035 L78.9592708,24.5009549 C79.1630903,24.5552951 79.5193403,24.9476563 80.5236806,24.9476563 C81.1384375,24.9476563 81.6802778,24.9789063 82.2703819,24.7947049 C82.4361806,24.743316 83.0193403,24.566059 83.0193403,24.3888021 L83.0193403,15.0773438 C83.0193403,13.2124132 82.5986806,11.916059 81.7000694,10.4368924 L81.4233333,10.043316 C81.3339236,9.92092014 81.2294097,9.78116319 81.1283681,9.66796875 C80.7880903,9.28689236 80.5320139,9.00060764 80.1193403,8.66536458 C78.9486806,7.71414931 77.4424306,7.02664931 75.9085764,6.87977431 C75.7276736,6.86223958 75.4816667,6.86362847 75.2771528,6.84036458 C74.5637847,6.75980903 73.5380903,6.93810764 72.9547569,7.09869792 C72.1394792,7.32300347 71.0613542,7.84314236 71.0255903,7.85147569" id="Fill-9" fill="#FF3E3C"></path>
                    <path d="M21.0528819,15.7691667 C21.0528819,19.85875 22.8725,22.7575347 26.1865625,24.1901736 C27.550625,24.7794097 28.963125,24.9099653 30.6101736,24.9099653 C32.3513194,24.9099653 34.1909028,24.3115278 35.6221528,23.3537153 C37.1954167,22.3002431 36.8179861,19.4247222 33.1014931,21.1455556 C31.3311806,21.9651736 29.3981944,22.0608333 27.5813542,21.3356597 C27.2303125,21.1957292 26.9353472,21.0226389 26.6343056,20.8229861 C25.7511458,20.2375694 25.1252778,19.3564931 24.7362153,18.3764583 C24.0792708,16.7202083 24.6834375,13.8655208 25.4589583,12.2332292 C25.5251042,12.0948611 25.5810069,12.0189931 25.6450694,11.8979861 L24.6617361,10.4832292 C24.5688542,10.3596181 24.5084375,10.2663889 24.4138194,10.1405208 L23.6294444,9.11760417 C23.5532292,9.17350694 23.2770139,9.55875 23.2049653,9.66638889 C21.9830903,11.1136111 21.0528819,13.8294097 21.0528819,15.7691667" id="Fill-11" fill="#FF3E3C"></path>
                    <path d="M39.533316,9.56486111 L39.533316,22.9363889 C39.533316,24.4884722 41.2897396,25.7516667 42.6906076,24.3435069 C42.9480729,24.0843056 43.2204688,23.5546181 43.2204688,23.0481944 L43.2204688,9.37857639 C43.2204688,8.58847222 42.4192535,7.55357639 41.5072743,7.55357639 L41.3209896,7.55357639 C40.3201215,7.55357639 39.533316,8.54229167 39.533316,9.56486111" id="Fill-13" fill="#FF3E3C"></path>
                    <path d="M67.4126563,24.4636285 C68.1702951,24.9709201 69.4796701,24.962066 70.4079688,24.7771701 C70.6050174,24.737934 70.7571007,24.7018229 70.918559,24.6544271 C71.0916493,24.6033854 71.2715104,24.5388021 71.4353993,24.5009549 L71.4353993,15.1141493 C71.4347049,14.2790799 71.7867882,13.4736979 72.0786285,12.7898438 C72.1513715,12.6197049 72.2826215,12.4328993 72.3718576,12.2638021 C72.239566,12.0658854 70.4069271,10.6037326 69.9793229,10.2238715 C69.2386979,9.56571181 68.6697743,8.99157986 67.9860938,8.30633681 C67.7984201,8.12057292 67.6977257,8.11484375 67.6791493,8.34019097 L67.4126563,24.4636285 Z" id="Fill-15" fill="#FF3E3C"></path>
                    <path d="M24.3545486,8.67927083 C24.3911806,8.83638889 24.9177431,9.47701389 25.0495139,9.65236111 C25.1354514,9.76625 25.2088889,9.87736111 25.2977778,9.99489583 C25.6220833,10.4240625 25.9325,10.8744097 26.2312847,11.3204167 C26.4880556,11.1483681 26.6969097,10.9476736 26.9849306,10.7882986 C27.2679167,10.6315278 27.5238194,10.481875 27.8509028,10.3685069 C29.6984722,9.72684028 31.4781597,9.8334375 33.2170486,10.6947222 C37.0061111,12.5716319 37.8816319,7.963125 31.816875,6.95149306 C31.3239931,6.86885417 30.3491667,6.76225694 29.8708681,6.82770833 C29.5491667,6.87180556 29.2196528,6.84524306 28.891875,6.89125 C27.4509028,7.09420139 26.2078472,7.44993056 24.9868403,8.23395833 C24.7568056,8.381875 24.5724306,8.5334375 24.3545486,8.67927083" id="Fill-17" fill="#FF3E3C"></path>
                    <g id="Group-21" transform="translate(39.236111, 0.135764)">
                        <mask id="mask-6" fill="white">
                            <use xlink:href="#path-5"></use>
                        </mask>
                        <g id="Clip-20"></g>
                        <path d="M2.00111111,4.14159722 C2.67506944,4.14159722 3.14746528,4.00635417 3.59017361,3.56138889 C4.09868056,3.04958333 4.19607639,2.644375 4.19607639,1.92111111 C4.19607639,1.28100694 3.72767361,0.679791667 3.28809028,0.379097222 C3.18479167,0.308090278 3.07888889,0.264166667 2.97142361,0.210694444 C2.47854167,-0.0342708333 1.82819444,-0.00475694444 1.33670139,0.210173611 C1.18340278,0.277361111 0.981840278,0.387777778 0.859097222,0.498368056 C0.718125,0.625277778 0.747291667,0.560868056 0.611701389,0.736041667 C0.218993056,1.24315972 0.187569444,1.39854167 0.0967708333,2.00878472 C0.0610069444,2.25079861 0.175416667,2.67440972 0.236354167,2.84350694 C0.482881944,3.52770833 1.27368056,4.14159722 2.00111111,4.14159722" id="Fill-19" fill="#FF3E3C" mask="url(#mask-6)"></path>
                    </g>
                    <path d="M17.9525521,9.90005208 C17.9525521,9.39102431 17.9515104,8.88182292 17.9527257,8.37296875 C17.9544618,7.67539931 17.9509896,7.92800347 17.253941,7.13477431 C16.9334549,6.77001736 16.8966493,6.84588542 16.388316,6.84588542 L14.8239063,6.84588542 C14.9299826,7.00421875 16.1199132,8.15821181 16.3600174,8.40109375 C16.4973438,8.53998264 16.6100174,8.61185764 16.751684,8.75456597 C16.9353646,8.93998264 17.7895313,9.85630208 17.9525521,9.90005208" id="Fill-22" fill="#FF3E3C"></path>
                </g>
            </g>
        </g>
    </g>
</svg>