<?xml version="1.0" encoding="UTF-8"?>
<svg width="51px" height="50px" viewBox="0 0 51 50" version="1.1" xmlns="http://www.w3.org/2000/svg" xmlns:xlink="http://www.w3.org/1999/xlink">
    <defs>
        <polygon id="path-1" points="0 0.104901961 48.9999321 0.104901961 48.9999321 49.8365813 0 49.8365813"></polygon>
    </defs>
    <g id="Symbols" stroke="none" stroke-width="1" fill="none" fill-rule="evenodd">
        <g id="Footer" transform="translate(-1257.000000, -50.000000)">
            <g id="Group-6">
                <g transform="translate(1257.000000, 50.000000)">
                    <g id="Group-3" transform="translate(0.000000, 0.058497)">
                        <mask id="mask-2" fill="white">
                            <use xlink:href="#path-1"></use>
                        </mask>
                        <g id="Clip-2"></g>
                        <path d="M0.000473666063,23.7896732 C0.000473666063,26.7801961 -0.0475463339,28.3071569 0.821876999,31.2679412 C1.669577,34.1566667 2.99862033,36.9194118 4.74024367,39.291634 C6.33993033,41.4695752 8.608467,43.7849346 10.7847203,45.2893464 C13.2802903,47.0135294 14.0816037,47.3450654 16.694447,48.3854248 C20.6719403,49.9695752 27.5864937,50.7045425 31.406697,48.2248039 C33.803287,46.6697386 35.2092603,43.3047059 35.2092603,39.8826471 L35.2092603,37.5553595 C35.2092603,36.6980065 35.1079937,36.2672876 35.1079937,35.4297059 C34.6962303,35.5252941 31.633077,37.5413072 30.2504603,38.1614052 C24.575607,40.7074837 18.7454237,39.7584641 14.2913237,35.3030719 C11.784157,32.7944118 10.0168903,29.1114052 10.0168903,25.4091176 C10.0168903,22.5661438 10.215667,20.9429412 11.3653703,18.4586275 C12.1248703,16.8171242 13.1055237,15.5870588 14.3421203,14.3504575 C15.280797,13.410915 15.1819803,13.5194118 16.259817,12.7264379 C16.9646003,12.2086275 17.7203437,11.8303595 18.5144703,11.4390196 C22.7309203,9.35862745 27.199067,9.92464052 31.2634537,11.9466993 C31.800657,12.2136928 32.107397,12.4056863 32.599847,12.7352614 C32.9807403,12.9898366 33.4826637,13.3447386 33.8178237,13.6421242 C34.1939803,13.9774183 34.5150937,14.3422876 34.8811237,14.7045425 C36.659497,16.468268 37.883027,19.388366 38.318637,21.8937582 C39.1774437,26.8362418 38.119697,44.5488235 38.937507,46.9836275 C39.7399637,49.369902 42.4230403,48.9486601 45.243807,49.1841176 C46.1780737,49.2615686 47.6273303,48.920719 48.293567,48.0128758 C48.854127,47.2498039 49.1117037,45.7555229 48.9544137,44.3517647 C48.7626603,42.6426144 48.7579237,29.3386928 48.7682137,27.5334641 C48.772787,26.7466993 48.6622103,26.3431046 48.664987,25.5114052 C48.6827903,20.8308497 47.983887,17.5806863 45.866597,13.3297059 C44.095247,9.77366013 41.0138003,6.39555556 37.8194903,4.27447712 C34.2578437,1.91026144 29.5110503,0.104869281 24.8893703,0.104869281 C20.4048903,0.104869281 17.590657,0.720392157 13.962697,2.53411765 C12.651947,3.18918301 11.4668003,3.92055556 10.334737,4.77513072 C10.0454737,4.99375817 9.81893033,5.15813725 9.53424033,5.39212418 C9.22799033,5.64196078 8.99965033,5.86271242 8.716267,6.09163399 C5.172587,8.94620915 2.01323033,14.1319935 0.808973666,18.7275817 C0.457970333,20.0669608 0.000473666063,22.1496405 0.000473666063,23.7896732" id="Fill-1" fill="#FF3E3C" mask="url(#mask-2)"></path>
                    </g>
                    <path d="M50.066911,10.4556635 C50.066911,8.82636795 50.0637094,7.19476102 50.067476,5.56469498 C50.0729375,3.32925288 50.0627677,4.1389891 47.8788952,1.59806612 C46.8752856,0.429495792 46.7600277,0.672763358 45.1680758,0.672763358 L40.2679223,0.672763358 C40.6005128,1.18029308 44.3271832,4.87668885 45.0786191,5.65445166 C45.5091411,6.09919022 45.8622595,6.32993808 46.3057762,6.78738897 C46.8807472,7.38082315 49.5567255,10.315828 50.066911,10.4556635" id="Fill-4" fill="#26C7D9"></path>
                </g>
            </g>
        </g>
    </g>
</svg>